<svg xmlns="http://www.w3.org/2000/svg" width="512" height="512" viewBox="0 0 512 512" fill="none"><g clip-path="url(#clip0_243_214)"><path d="M496.993 481.999H480.993V186.003C480.993 177.72 474.278 171.004 465.994 171.004H405.994C397.711 171.004 390.995 177.72 390.995 186.003V481.999H360.995V286.002C360.995 277.718 354.279 271.002 345.995 271.002H285.996C277.712 271.002 270.996 277.718 270.996 286.002V481.999H240.997V341.001C240.997 332.717 234.281 326.002 225.997 326.002H165.998C157.714 326.002 150.998 332.717 150.998 341.001V481.999H120.998V377.001C120.998 368.717 114.282 362.001 105.999 362.001H45.9994C37.7155 362.001 30.9996 368.717 30.9996 377.001V481.999H14.9998C6.71591 481.999 0 488.715 0 496.999C0 505.283 6.71591 511.999 14.9998 511.999H496.993C505.277 511.999 511.993 505.283 511.993 496.999C511.993 488.715 505.277 481.999 496.993 481.999Z" fill="#3DA9FF"></path><path d="M14.9998 322.306C108.617 322.306 210.137 288.684 300.862 227.634C371.916 179.82 431.146 118.737 467.938 56.1913L482.505 110.558C484.301 117.259 492.972 123.049 500.876 121.163C508.934 119.241 513.626 110.795 511.482 102.793L486.919 11.1239C484.774 3.123 476.553 -1.62694 468.549 0.518033L376.88 25.0807C368.878 27.2247 364.13 35.4496 366.274 43.4514C368.419 51.4533 376.64 56.2033 384.645 54.0573L443.699 38.2335C409.374 97.8787 352.647 156.626 284.113 202.744C198.286 260.499 102.714 292.306 14.9998 292.306C6.71591 292.306 0 299.022 0 307.306C0 315.59 6.71591 322.306 14.9998 322.306Z" fill="#3DA9FF"></path></g><defs><clipPath id="clip0_243_214"><rect width="512" height="512" fill="white"></rect></clipPath></defs></svg>
