<svg xmlns="http://www.w3.org/2000/svg" width="182" height="183" viewBox="0 0 182 183" fill="none"><rect x="5.83416" y="6.20647" width="170.213" height="170.213" rx="85.1067" fill="#09090A"></rect><rect x="5.83416" y="6.20647" width="170.213" height="170.213" rx="85.1067" stroke="url(#paint0_linear_62_447)" stroke-width="2.33169"></rect><g opacity="0.2"><rect x="10.4975" y="10.8698" width="160.887" height="160.887" rx="80.4433" fill="url(#paint1_linear_62_447)"></rect><rect x="10.4975" y="10.8698" width="160.887" height="160.887" rx="80.4433" stroke="white" stroke-width="6.99507"></rect><rect x="10.4975" y="10.8698" width="160.887" height="160.887" rx="80.4433" stroke="black" stroke-opacity="0.2" stroke-width="6.99507"></rect></g><circle opacity="0.5" cx="90.9393" cy="91.3128" r="90.9359" fill="url(#paint2_radial_62_447)"></circle><g opacity="0.4"><rect x="13.9966" y="14.3677" width="153.891" height="153.891" rx="76.9457" fill="#020814"></rect><rect x="15.1624" y="15.5335" width="151.56" height="151.56" rx="75.7799" stroke="url(#paint3_linear_62_447)" stroke-opacity="0.5" stroke-width="2.33169"></rect></g><path fill-rule="evenodd" clip-rule="evenodd" d="M53.5266 72.756C53.7002 65.7105 53.787 62.1877 55.2244 59.5304C56.4888 57.193 58.4608 55.3159 60.8576 54.1681C63.5824 52.8632 67.1052 52.95 74.1508 53.1235L109.375 53.9913C116.421 54.1648 119.944 54.2516 122.601 55.6891C124.939 56.9535 126.816 58.9254 127.963 61.3223C129.268 64.0471 129.182 67.5699 129.008 74.6155L128.14 109.84C127.967 116.886 127.88 120.408 126.442 123.066C125.178 125.403 123.206 127.28 120.809 128.428C118.084 129.733 114.562 129.646 107.516 129.473L72.2914 128.605C65.2458 128.431 61.723 128.345 59.0657 126.907C56.7283 125.643 54.8512 123.671 53.7034 121.274C52.3985 118.549 52.4853 115.026 52.6589 107.981L53.5266 72.756ZM112.171 76.7779L113.369 78.0364C114.966 79.7144 117.621 79.7798 119.299 78.1825C120.977 76.5852 121.043 73.9301 119.445 72.2521L111.265 63.6587C109.668 61.9807 107.013 61.9153 105.335 63.5126L96.7413 71.6928C95.0633 73.2901 94.9979 75.9452 96.5952 77.6232C98.1925 79.3011 100.848 79.3666 102.526 77.7693L103.784 76.5713L103.517 87.4146C103.175 101.31 91.6324 112.298 77.7367 111.955L65.1565 111.645C62.8405 111.588 60.9168 113.419 60.8598 115.735C60.8027 118.051 62.6339 119.975 64.9499 120.032L77.5301 120.342C96.0577 120.798 111.447 106.149 111.904 87.6212L112.171 76.7779Z" fill="#3DA9FF"></path><path d="M80.6862 102.293L80.6827 71.9664L82.6255 71.9661L82.629 102.292L80.6862 102.293ZM87.2228 81.0635C87.0805 79.8631 86.5039 78.9312 85.493 78.268C84.482 77.6047 83.2421 77.2732 81.7732 77.2733C80.6991 77.2735 79.7593 77.4473 78.9538 77.7949C78.1562 78.1425 77.5324 78.6203 77.0823 79.2285C76.6401 79.8366 76.4191 80.5277 76.4192 81.3016C76.4192 81.9492 76.5733 82.506 76.8814 82.9719C77.1973 83.4299 77.6001 83.8129 78.0898 84.1208C78.5795 84.4209 79.0928 84.6696 79.6299 84.867C80.1669 85.0564 80.6606 85.2104 81.1107 85.3288L83.5748 85.9919C84.2066 86.1577 84.9095 86.3866 85.6835 86.6787C86.4654 86.9708 87.2117 87.3696 87.9226 87.8749C88.6413 88.3724 89.2337 89.012 89.6997 89.7938C90.1657 90.5756 90.3988 91.5351 90.399 92.6723C90.3991 93.9833 90.0557 95.1679 89.3688 96.2263C88.6897 97.2846 87.6947 98.1258 86.3838 98.7499C85.0808 99.3739 83.4974 99.686 81.6336 99.6863C79.8962 99.6865 78.3917 99.4063 77.1201 98.8457C75.8565 98.2851 74.8613 97.5034 74.1346 96.5005C73.4159 95.4976 73.009 94.3328 72.9141 93.006L75.9467 93.0057C76.0258 93.9218 76.3339 94.6799 76.871 95.28C77.416 95.8723 78.1031 96.3145 78.9323 96.6066C79.7695 96.8908 80.6698 97.0328 81.6333 97.0327C82.7548 97.0326 83.7617 96.8508 84.654 96.4874C85.5464 96.1162 86.2531 95.6027 86.7743 94.9472C87.2955 94.2838 87.556 93.5098 87.5559 92.6253C87.5558 91.8197 87.3306 91.1643 86.8804 90.6589C86.4302 90.1535 85.8378 89.7429 85.1034 89.4271C84.3689 89.1113 83.5751 88.835 82.7222 88.5981L79.7368 87.7456C77.8414 87.2009 76.3408 86.4231 75.235 85.4124C74.1293 84.4017 73.5763 83.0789 73.5761 81.4441C73.576 80.0858 73.943 78.9011 74.6774 77.8902C75.4196 76.8713 76.4146 76.0814 77.6623 75.5206C78.918 74.9518 80.3197 74.6673 81.8676 74.6672C83.4313 74.667 84.8213 74.9472 86.0376 75.5078C87.2538 76.0604 88.2174 76.8185 88.9283 77.7819C89.6471 78.7453 90.0263 79.839 90.0659 81.0631L87.2228 81.0635Z" fill="#0A0A0B"></path><defs><linearGradient id="paint0_linear_62_447" x1="90.9408" y1="7.37231" x2="90.9408" y2="175.254" gradientUnits="userSpaceOnUse"><stop stop-color="white" stop-opacity="0.36"></stop><stop offset="1" stop-color="white" stop-opacity="0"></stop></linearGradient><linearGradient id="paint1_linear_62_447" x1="86.6812" y1="214.092" x2="86.6811" y2="74.7755" gradientUnits="userSpaceOnUse"><stop offset="0.182292" stop-color="#606060"></stop><stop offset="1" stop-color="#17141E" stop-opacity="0"></stop></linearGradient><radialGradient id="paint2_radial_62_447" cx="0" cy="0" r="1" gradientUnits="userSpaceOnUse" gradientTransform="translate(90.9393 91.3128) rotate(90) scale(83.9408)"><stop offset="0.161458" stop-color="#3DA9FF" stop-opacity="0.34"></stop><stop offset="1" stop-color="#040A14" stop-opacity="0"></stop></radialGradient><linearGradient id="paint3_linear_62_447" x1="90.9423" y1="14.3677" x2="157.888" y2="183.359" gradientUnits="userSpaceOnUse"><stop stop-color="white" stop-opacity="0.4"></stop><stop offset="0.4" stop-color="white" stop-opacity="0.01"></stop><stop offset="0.6" stop-color="white" stop-opacity="0.01"></stop><stop offset="1" stop-color="white" stop-opacity="0.1"></stop></linearGradient></defs></svg>
