<svg xmlns="http://www.w3.org/2000/svg" width="183" height="183" viewBox="0 0 183 183" fill="none"><rect x="6.20769" y="6.20769" width="170.213" height="170.213" rx="85.1067" fill="#020814"></rect><rect x="6.20769" y="6.20769" width="170.213" height="170.213" rx="85.1067" stroke="url(#paint0_linear_62_432)" stroke-width="2.33169"></rect><g opacity="0.2"><rect x="10.8711" y="10.8708" width="160.887" height="160.887" rx="80.4433" fill="url(#paint1_linear_62_432)"></rect><rect x="10.8711" y="10.8708" width="160.887" height="160.887" rx="80.4433" stroke="white" stroke-width="6.99507"></rect><rect x="10.8711" y="10.8708" width="160.887" height="160.887" rx="80.4433" stroke="black" stroke-opacity="0.2" stroke-width="6.99507"></rect></g><circle opacity="0.5" cx="91.3128" cy="91.3138" r="90.9359" fill="url(#paint2_radial_62_432)"></circle><rect opacity="0.4" x="15.5362" y="15.5347" width="151.56" height="151.56" rx="75.7799" stroke="url(#paint3_linear_62_432)" stroke-opacity="0.5" stroke-width="2.33169"></rect><path d="M71.3992 51.7498C69.2218 51.7498 67.4566 53.5149 67.4566 55.6924L67.4566 122.717L63.5139 122.717C61.3365 122.717 59.5713 124.483 59.5713 126.66C59.5713 128.838 61.3365 130.603 63.5139 130.603L79.2845 130.603C81.462 130.603 83.2272 128.838 83.2272 126.66C83.2272 124.483 81.462 122.717 79.2845 122.717L75.3419 122.717L75.3419 55.6924C75.3419 53.5149 73.5767 51.7498 71.3992 51.7498Z" fill="#3DA9FF"></path><path d="M83.2273 101.033C83.2273 104.318 85.9009 106.947 89.1484 106.947L116.732 106.947C121.236 106.947 124.103 102.103 121.9 98.1527L113.613 83.2909L121.9 68.4291C124.103 64.4787 121.236 59.635 116.732 59.635L89.1484 59.635C85.9009 59.635 83.2273 62.2642 83.2273 65.549L83.2273 101.033Z" fill="#3DA9FF"></path><defs><linearGradient id="paint0_linear_62_432" x1="91.3144" y1="7.37354" x2="91.3144" y2="175.255" gradientUnits="userSpaceOnUse"><stop stop-color="white" stop-opacity="0.36"></stop><stop offset="1" stop-color="white" stop-opacity="0"></stop></linearGradient><linearGradient id="paint1_linear_62_432" x1="87.0547" y1="214.093" x2="87.0547" y2="74.7765" gradientUnits="userSpaceOnUse"><stop offset="0.182292" stop-color="#606060"></stop><stop offset="1" stop-color="#17141E" stop-opacity="0"></stop></linearGradient><radialGradient id="paint2_radial_62_432" cx="0" cy="0" r="1" gradientUnits="userSpaceOnUse" gradientTransform="translate(91.3128 91.3138) rotate(90) scale(83.9408)"><stop offset="0.161458" stop-color="#3DA9FF" stop-opacity="0.34"></stop><stop offset="1" stop-color="#040A14" stop-opacity="0"></stop></radialGradient><linearGradient id="paint3_linear_62_432" x1="91.3161" y1="14.3689" x2="158.262" y2="183.361" gradientUnits="userSpaceOnUse"><stop stop-color="white" stop-opacity="0.4"></stop><stop offset="0.4" stop-color="white" stop-opacity="0.01"></stop><stop offset="0.6" stop-color="white" stop-opacity="0.01"></stop><stop offset="1" stop-color="white" stop-opacity="0.1"></stop></linearGradient></defs></svg>
