<svg xmlns="http://www.w3.org/2000/svg" width="512" height="512" viewBox="0 0 512 512" fill="none"><g clip-path="url(#clip0_1880_2876)"><path d="M0 47.8931C0 21.4424 21.4424 0 47.8931 0H396.828C423.279 0 444.722 21.4424 444.722 47.8931V382.575L392.267 366.04C387.516 364.52 376.928 363.834 370.601 371.742C363.759 380.294 365.85 388.467 367.18 391.697L383.715 444.722H47.8931C21.4424 444.722 0 423.279 0 396.828V47.8931Z" fill="#D9D9D9"></path><path d="M0 47.8931C0 21.4424 21.4424 0 47.8931 0H396.828C423.279 0 444.722 21.4424 444.722 47.8931V382.575L392.267 366.04C387.516 364.52 376.928 363.834 370.601 371.742C363.759 380.294 365.85 388.467 367.18 391.697L383.715 444.722H47.8931C21.4424 444.722 0 423.279 0 396.828V47.8931Z" fill="#3DA9FF"></path><path d="M298.713 176.886C333.151 213.031 336.634 217.283 336.634 222.115C336.634 225.402 328.702 235.26 309.353 255.749C294.262 271.598 280.719 285.516 279.364 286.29C275.494 288.415 269.304 286.096 266.789 281.65C264.081 276.432 266.401 273.146 292.134 245.891C303.937 233.714 313.417 222.889 313.417 221.923C313.417 220.956 303.937 210.132 292.134 197.955C280.525 185.584 269.498 173.406 267.757 170.701C264.855 166.255 264.855 165.481 267.757 161.036C273.173 152.724 277.623 154.85 298.713 176.886Z" fill="black"></path><path d="M241.445 133.396C242.797 134.749 243.765 137.842 243.765 140.548C243.765 151.759 218.807 307.36 216.678 309.873C213.776 313.352 206.812 313.738 203.523 310.454C202.169 309.1 201.201 306.007 201.201 303.107C201.201 292.089 226.159 136.489 228.288 133.976C231.19 130.497 238.154 130.11 241.445 133.396Z" fill="black"></path><path d="M176.047 160.069C178.176 162.194 179.917 164.708 179.917 165.675C179.917 168.379 171.791 178.046 150.508 200.274C140.061 211.098 131.547 220.763 131.547 221.729C131.547 222.889 141.028 233.714 152.83 245.891C164.438 258.261 175.467 270.438 177.207 273.146C180.111 277.592 180.111 278.364 177.207 282.81C171.791 291.121 167.34 288.995 146.251 266.767C112.393 231.201 108.33 226.562 108.33 221.923C108.33 219.409 112.2 213.418 117.423 207.619C145.284 177.272 166.567 156.203 169.275 156.203C170.823 156.203 173.919 157.943 176.047 160.069Z" fill="black"></path><path d="M379.723 378.584C379.723 378.584 377.442 380.295 377.442 385.002C377.442 387.127 386.537 415.928 397.37 448.788C415.752 503.489 417.878 508.901 422.522 510.449C430.466 512.571 432.777 509.482 439.354 487.64C448.449 457.874 450.964 451.88 455.413 449.367C457.736 448.207 470.311 443.955 483.467 439.897C510.748 431.779 512.572 427.607 511.715 421.34C510.858 415.074 505.525 414.767 449.997 396.211C417.105 385.387 388.277 376.304 386.149 376.304C381.433 376.304 379.723 378.584 379.723 378.584Z" fill="white"></path></g><defs><clipPath id="clip0_1880_2876"><rect width="512" height="512" fill="white"></rect></clipPath></defs></svg>
