<svg xmlns="http://www.w3.org/2000/svg" width="512" height="512" viewBox="0 0 512 512" fill="none"><g clip-path="url(#clip0_243_186)"><path d="M185.641 261.578L13.396 433.823C-4.46402 451.683 -4.46402 480.744 13.396 498.605C22.326 507.535 34.056 512 45.786 512C57.516 512 69.247 507.535 78.177 498.605L250.423 326.359L185.641 261.578Z" fill="#3DA9FF"></path><path d="M283.818 91.0582L170.761 204.115L307.897 341.251L420.954 228.194L283.818 91.0582Z" fill="#3DA9FF"></path><path d="M507.588 272.474L463.422 228.307L308.022 383.707L352.19 427.875C355.131 430.816 358.985 432.285 362.838 432.285C366.691 432.285 370.546 430.815 373.486 427.874L507.588 293.771C513.469 287.89 513.469 278.355 507.588 272.474Z" fill="#3DA9FF"></path><path d="M239.526 4.411C236.702 1.587 232.871 0 228.877 0C224.883 0 221.053 1.587 218.229 4.411L84.127 138.514C78.246 144.395 78.246 153.93 84.127 159.811L128.294 203.978L283.694 48.578L239.526 4.411Z" fill="#3DA9FF"></path></g><defs><clipPath id="clip0_243_186"><rect width="512" height="512" fill="white"></rect></clipPath></defs></svg>
