<svg xmlns="http://www.w3.org/2000/svg" width="135" height="51" viewBox="0 0 135 51" fill="none"><rect y="0.65625" width="135" height="49.6875" rx="24.8438" fill="url(#paint0_radial_109_773)"></rect><rect x="87.1875" y="6.73535" width="40.7451" height="37.9489" rx="18.9744" fill="#09090A"></rect><path d="M109.947 14.9339C109.401 14.3879 108.516 14.3879 107.97 14.9339C107.424 15.4799 107.424 16.3651 107.97 16.9111L115.37 24.3112H96.3752C95.603 24.3112 94.9771 24.9372 94.9771 25.7093C94.9771 26.4815 95.603 27.1075 96.3752 27.1075H115.37L107.97 34.5075C107.424 35.0535 107.424 35.9388 107.97 36.4848C108.516 37.0308 109.401 37.0308 109.947 36.4848L119.734 26.698C120.28 26.152 120.28 25.2667 119.734 24.7207L109.947 14.9339Z" fill="#3DA9FF"></path><defs><radialGradient id="paint0_radial_109_773" cx="0" cy="0" r="1" gradientUnits="userSpaceOnUse" gradientTransform="translate(65.3804 50.3437) rotate(-180) scale(92.6087 56.0324)"><stop stop-color="#CCFF00"></stop><stop offset="1" stop-color="#3DA9FF"></stop></radialGradient></defs></svg>
