<svg xmlns="http://www.w3.org/2000/svg" width="512" height="512" viewBox="0 0 512 512" fill="none"><path d="M459.636 209.455H447.864C446.889 171.099 434.376 133.929 411.958 102.792C389.539 71.6555 358.257 47.999 322.191 34.9091H419.735C421.151 40.3936 424.519 45.1735 429.207 48.3526C433.895 51.5317 439.582 52.8919 445.201 52.1781C450.821 51.4644 455.987 48.7257 459.731 44.4755C463.476 40.2253 465.542 34.7553 465.542 29.0909C465.542 23.4265 463.476 17.9565 459.731 13.7063C455.987 9.45606 450.821 6.7174 445.201 6.00366C439.582 5.28992 433.895 6.65009 429.207 9.82922C424.519 13.0083 421.151 17.7882 419.735 23.2727H279.273V11.6364C279.273 10.0933 278.66 8.6134 277.569 7.52228C276.477 6.43116 274.998 5.81817 273.455 5.81817H238.545C237.002 5.81817 235.522 6.43116 234.431 7.52228C233.34 8.6134 232.727 10.0933 232.727 11.6364V23.2727H92.2647C90.8486 17.7882 87.4808 13.0083 82.7927 9.82922C78.1045 6.65009 72.4178 5.28992 66.7985 6.00366C61.1792 6.7174 56.0132 9.45606 52.2686 13.7063C48.5241 17.9565 46.4583 23.4265 46.4583 29.0909C46.4583 34.7553 48.5241 40.2253 52.2686 44.4755C56.0132 48.7257 61.1792 51.4644 66.7985 52.1781C72.4178 52.8919 78.1045 51.5317 82.7927 48.3526C87.4808 45.1735 90.8486 40.3936 92.2647 34.9091H189.808C153.742 47.999 122.459 71.6555 100.041 102.792C77.6228 133.929 65.1098 171.099 64.135 209.455H52.3636C50.8205 209.455 49.3407 210.068 48.2495 211.159C47.1584 212.25 46.5454 213.73 46.5454 215.273V250.182C46.5454 251.725 47.1584 253.205 48.2495 254.296C49.3407 255.387 50.8205 256 52.3636 256H87.2727C88.8158 256 90.2957 255.387 91.3868 254.296C92.4779 253.205 93.0909 251.725 93.0909 250.182V215.273C93.0909 213.73 92.4779 212.25 91.3868 211.159C90.2957 210.068 88.8158 209.455 87.2727 209.455H75.7725C76.94 166.618 93.4122 125.616 122.205 93.8767C150.998 62.1379 190.206 41.7618 232.727 36.4398V46.5454C232.727 48.0885 233.34 49.5684 234.431 50.6595C235.522 51.7506 237.002 52.3636 238.545 52.3636H273.455C274.998 52.3636 276.477 51.7506 277.569 50.6595C278.66 49.5684 279.273 48.0885 279.273 46.5454V36.4398C321.794 41.7618 361.002 62.1379 389.795 93.8767C418.588 125.616 435.06 166.618 436.227 209.455H424.727C423.184 209.455 421.704 210.068 420.613 211.159C419.522 212.25 418.909 213.73 418.909 215.273V250.182C418.909 251.725 419.522 253.205 420.613 254.296C421.704 255.387 423.184 256 424.727 256H459.636C461.179 256 462.659 255.387 463.75 254.296C464.842 253.205 465.455 251.725 465.455 250.182V215.273C465.455 213.73 464.842 212.25 463.75 211.159C462.659 210.068 461.179 209.455 459.636 209.455Z" fill="#3DA9FF"></path><path d="M272.841 78.8521C272.255 77.6795 271.29 76.7392 270.103 76.1836C268.915 75.6279 267.575 75.4895 266.299 75.7907C265.024 76.0919 263.887 76.8151 263.074 77.8431C262.26 78.8711 261.818 80.1437 261.818 81.4545V270.022C261.818 271.148 262.145 272.25 262.76 273.194C263.374 274.138 264.249 274.883 265.278 275.34C270.184 277.472 274.206 281.23 276.666 285.981C279.126 290.731 279.874 296.184 278.785 301.421C277.696 306.659 274.836 311.361 270.686 314.737C266.536 318.113 261.35 319.956 256 319.956C250.65 319.956 245.464 318.113 241.314 314.737C237.164 311.361 234.304 306.659 233.215 301.421C232.126 296.184 232.874 290.731 235.334 285.981C237.794 281.23 241.816 277.472 246.722 275.34C247.751 274.883 248.626 274.138 249.24 273.194C249.855 272.25 250.182 271.148 250.182 270.022V81.4545C250.182 80.1437 249.74 78.8711 248.926 77.8431C248.113 76.8151 246.976 76.0919 245.701 75.7907C244.425 75.4895 243.085 75.6279 241.897 76.1836C240.71 76.7392 239.745 77.6795 239.159 78.8521L128.614 299.943C128.21 300.751 128 301.642 128 302.545C128 303.449 128.21 304.34 128.614 305.148L170.949 389.818H341.051L383.386 305.148C383.79 304.34 384 303.449 384 302.545C384 301.642 383.79 300.751 383.386 299.943L272.841 78.8521Z" fill="#3DA9FF"></path><path d="M354.909 401.455H157.091C153.878 401.455 151.273 404.059 151.273 407.273V442.182C151.273 445.395 153.878 448 157.091 448H354.909C358.122 448 360.727 445.395 360.727 442.182V407.273C360.727 404.059 358.122 401.455 354.909 401.455Z" fill="#3DA9FF"></path><path d="M168.727 500.364C168.727 501.907 169.34 503.387 170.431 504.478C171.522 505.569 173.002 506.182 174.545 506.182H337.455C338.998 506.182 340.477 505.569 341.569 504.478C342.66 503.387 343.273 501.907 343.273 500.364V459.636H168.727V500.364Z" fill="#3DA9FF"></path></svg>
