<svg xmlns="http://www.w3.org/2000/svg" width="200" height="200" viewBox="0 0 200 200" fill="none"><rect x="6.72273" y="6.72273" width="186.482" height="186.482" rx="93.2411" fill="#020814"></rect><rect x="6.72273" y="6.72273" width="186.482" height="186.482" rx="93.2411" stroke="url(#paint0_linear_62_461)" stroke-width="2.55455"></rect><g opacity="0.2"><rect x="11.8318" y="11.8321" width="176.264" height="176.264" rx="88.132" fill="url(#paint1_linear_62_461)"></rect><rect x="11.8318" y="11.8321" width="176.264" height="176.264" rx="88.132" stroke="white" stroke-width="7.66365"></rect><rect x="11.8318" y="11.8321" width="176.264" height="176.264" rx="88.132" stroke="black" stroke-opacity="0.2" stroke-width="7.66365"></rect></g><circle opacity="0.5" cx="99.9622" cy="99.9634" r="99.6274" fill="url(#paint2_radial_62_461)"></circle><rect opacity="0.4" x="16.9428" y="16.9411" width="166.046" height="166.046" rx="83.0229" stroke="url(#paint3_linear_62_461)" stroke-opacity="0.5" stroke-width="2.55455"></rect><path fill-rule="evenodd" clip-rule="evenodd" d="M99.964 144.003C121.854 144.003 139.599 126.258 139.599 104.368C139.599 82.4781 121.854 64.7329 99.964 64.7329C78.0741 64.7329 60.3289 82.4781 60.3289 104.368C60.3289 126.258 78.0741 144.003 99.964 144.003ZM88.0421 96.8501L96.8499 88.0423C98.5698 86.3225 101.358 86.3225 103.078 88.0423L111.886 96.8501C113.606 98.5699 113.606 101.358 111.886 103.078C110.166 104.798 107.378 104.798 105.658 103.078L104.368 101.788V117.58C104.368 120.012 102.396 121.984 99.964 121.984C97.5318 121.984 95.5601 120.012 95.5601 117.58V101.788L94.2702 103.078C92.5504 104.798 89.762 104.798 88.0421 103.078C86.3223 101.358 86.3223 98.5699 88.0421 96.8501Z" fill="#3DA9FF"></path><path d="M67.3754 70.4579C65.4296 71.9173 62.6692 71.5229 61.2099 69.5772C59.7506 67.6314 60.1449 64.871 62.0907 63.4117L70.8985 56.8058C72.8442 55.3465 75.6046 55.7409 77.0639 57.6866C78.5233 59.6324 78.1289 62.3928 76.1832 63.8521L67.3754 70.4579Z" fill="#3DA9FF"></path><path d="M129.03 56.8064C127.084 55.347 124.324 55.7414 122.864 57.6871C121.405 59.6329 121.799 62.3933 123.745 63.8526L132.553 70.4584C134.499 71.9178 137.259 71.5234 138.719 69.5777C140.178 67.6319 139.784 64.8715 137.838 63.4122L129.03 56.8064Z" fill="#3DA9FF"></path><defs><linearGradient id="paint0_linear_62_461" x1="99.9638" y1="8" x2="99.9638" y2="191.928" gradientUnits="userSpaceOnUse"><stop stop-color="white" stop-opacity="0.36"></stop><stop offset="1" stop-color="white" stop-opacity="0"></stop></linearGradient><linearGradient id="paint1_linear_62_461" x1="95.297" y1="234.478" x2="95.297" y2="81.8458" gradientUnits="userSpaceOnUse"><stop offset="0.182292" stop-color="#606060"></stop><stop offset="1" stop-color="#17141E" stop-opacity="0"></stop></linearGradient><radialGradient id="paint2_radial_62_461" cx="0" cy="0" r="1" gradientUnits="userSpaceOnUse" gradientTransform="translate(99.9621 99.9634) rotate(90) scale(91.9638)"><stop offset="0.161458" stop-color="#3DA9FF" stop-opacity="0.34"></stop><stop offset="1" stop-color="#040A14" stop-opacity="0"></stop></radialGradient><linearGradient id="paint3_linear_62_461" x1="99.9657" y1="15.6638" x2="173.31" y2="200.808" gradientUnits="userSpaceOnUse"><stop stop-color="white" stop-opacity="0.4"></stop><stop offset="0.4" stop-color="white" stop-opacity="0.01"></stop><stop offset="0.6" stop-color="white" stop-opacity="0.01"></stop><stop offset="1" stop-color="white" stop-opacity="0.1"></stop></linearGradient></defs></svg>
